<?xml version="1.0" encoding="UTF-8" standalone="no"?>
<svg
   xmlns:dc="http://purl.org/dc/elements/1.1/"
   xmlns:cc="http://creativecommons.org/ns#"
   xmlns:rdf="http://www.w3.org/1999/02/22-rdf-syntax-ns#"
   xmlns:svg="http://www.w3.org/2000/svg"
   xmlns="http://www.w3.org/2000/svg"
   xmlns:sodipodi="http://sodipodi.sourceforge.net/DTD/sodipodi-0.dtd"
   xmlns:inkscape="http://www.inkscape.org/namespaces/inkscape"
   width="972mm"
   height="417mm"
   viewBox="0 0 3444.0945 1477.559"
   version="1.1"
   id="svg2"
   inkscape:version="0.91 r13725"
   sodipodi:docname="osgeo-park.svg"
   inkscape:export-filename="/data/git/osgeo_osgeo/marketing/osgeo-park.svg.png"
   inkscape:export-xdpi="300"
   inkscape:export-ydpi="300">
  <metadata
     id="metadata40">
    <rdf:RDF>
      <cc:Work
         rdf:about="">
        <dc:format>image/svg+xml</dc:format>
        <dc:type
           rdf:resource="http://purl.org/dc/dcmitype/StillImage" />
        <dc:title>osgeo_marketing</dc:title>
      </cc:Work>
    </rdf:RDF>
  </metadata>
  <sodipodi:namedview
     pagecolor="#ffffff"
     bordercolor="#666666"
     borderopacity="1"
     objecttolerance="10"
     gridtolerance="10"
     guidetolerance="10"
     inkscape:pageopacity="0"
     inkscape:pageshadow="2"
     inkscape:window-width="1301"
     inkscape:window-height="744"
     id="namedview38"
     showgrid="false"
     inkscape:zoom="0.29"
     inkscape:cx="1276.0801"
     inkscape:cy="673.42259"
     inkscape:window-x="65"
     inkscape:window-y="24"
     inkscape:window-maximized="1"
     inkscape:current-layer="svg2"
     units="mm"
     showguides="true"
     inkscape:guide-bbox="true">
    <sodipodi:guide
       position="945,1194.9999"
       orientation="0,1"
       id="guide3394" />
    <sodipodi:guide
       position="1135,634.99996"
       orientation="0,1"
       id="guide3396" />
  </sodipodi:namedview>
  <!-- Generator: Sketch 45.2 (43514) - http://www.bohemiancoding.com/sketch -->
  <title
     id="title4">osgeo_marketing</title>
  <desc
     id="desc6">Created with Sketch.</desc>
  <defs
     id="defs8" />
  <text
     xml:space="preserve"
     style="font-style:normal;font-weight:normal;font-size:241.58914185px;line-height:125%;font-family:sans-serif;letter-spacing:0px;word-spacing:0px;fill:#000000;fill-opacity:1;fill-rule:evenodd;stroke:#003a40;stroke-width:6.03972864px;stroke-linecap:butt;stroke-linejoin:miter;stroke-opacity:1"
     x="2217.0266"
     y="976.42798"
     id="text4182"
     sodipodi:linespacing="125%"><tspan
       sodipodi:role="line"
       id="tspan4184"
       x="2217.0266"
       y="976.42798"
       style="stroke-width:6.03972864px" /></text>
  <text
     xml:space="preserve"
     style="font-style:normal;font-weight:normal;font-size:241.58914185px;line-height:125%;font-family:sans-serif;letter-spacing:0px;word-spacing:0px;fill:#000000;fill-opacity:1;fill-rule:evenodd;stroke:#003a40;stroke-width:6.03972864px;stroke-linecap:butt;stroke-linejoin:miter;stroke-opacity:1"
     x="2927.583"
     y="1106.6967"
     id="text4186"
     sodipodi:linespacing="125%"><tspan
       sodipodi:role="line"
       id="tspan4188"
       x="2927.583"
       y="1106.6967"
       style="stroke-width:6.03972864px" /></text>
  <g
     id="g4242"
     transform="translate(18,-2)">
    <path
       style="fill:#4db05b;fill-rule:nonzero;stroke:none;stroke-width:1"
       inkscape:connector-curvature="0"
       id="Shape"
       d="m 1345.8886,819.99115 c -30.1986,-17.51521 -54.3575,-41.67412 -71.8727,-71.87277 -17.5152,-30.19864 -26.5748,-63.41715 -26.5748,-99.65552 l 0,-160.05281 c 0,-36.23837 9.0596,-69.45688 26.5748,-99.65552 17.5152,-30.19864 41.6741,-54.35756 71.8727,-71.87277 30.1987,-17.51521 63.4172,-26.57481 99.0516,-26.57481 35.6344,0 68.8529,9.0596 99.0515,26.57481 30.1987,17.51521 54.3576,41.67413 71.8728,71.87277 17.5152,30.19864 26.5748,63.41715 26.5748,99.65552 l 0,160.05281 c 0,36.23837 -9.0596,69.45688 -26.5748,99.65552 -17.5152,30.19865 -41.6741,54.35756 -71.8728,71.87277 -30.1986,17.51522 -63.4171,26.57481 -99.0515,26.57481 -35.6344,0 -68.8529,-9.05959 -99.0516,-26.57481 m 152.2012,-76.10058 c 16.3073,-10.26754 29.5947,-23.55494 39.2582,-40.46618 9.6636,-16.91124 14.4954,-35.03043 14.4954,-54.96153 l 0,-160.05281 c 0,-19.32713 -4.8318,-38.05029 -14.4954,-54.96153 -9.6635,-16.91124 -22.9509,-30.80261 -39.2582,-40.46618 -16.3073,-9.66357 -33.8225,-15.09932 -53.1496,-15.09932 -18.7232,0 -36.8424,4.83178 -53.1496,15.09932 -16.3073,10.26754 -29.5947,23.55494 -39.2583,40.46618 -9.6635,16.91124 -14.4953,35.03043 -14.4953,54.96153 l 0,160.05281 c 0,19.32713 4.8318,38.05029 14.4953,54.96153 9.6636,16.91124 22.951,30.80262 39.2583,40.46618 16.3072,10.26754 33.8225,15.09932 53.1496,15.09932 18.7232,-0.60397 36.8423,-5.43575 53.1496,-15.09932" />
    <path
       style="fill:#4db05b;fill-rule:nonzero;stroke:none;stroke-width:1"
       inkscape:connector-curvature="0"
       id="path16"
       d="m 1787.3928,832.67458 c -25.9708,-8.45562 -50.1297,-21.13905 -72.4767,-36.23837 -2.4159,-1.20794 -4.2278,-4.22781 -5.4358,-7.85165 -1.2079,-3.62383 -0.604,-7.24767 0.604,-10.26753 l 25.9708,-47.10989 c 3.0199,-6.03973 7.8517,-9.05959 13.8914,-9.05959 4.2278,0 7.8516,1.20795 11.4755,3.01986 37.4463,23.55495 71.8727,35.03043 104.4873,35.03043 26.5748,0 47.1099,-6.6437 62.2092,-19.32713 15.0993,-12.68343 22.951,-29.59467 22.951,-50.12975 0,-13.2874 -3.6239,-24.76289 -11.4755,-34.42645 -7.2477,-9.0596 -17.5152,-16.91124 -29.5947,-23.55494 -12.6834,-6.64371 -30.8026,-14.49535 -54.3576,-24.15892 l -21.743,-9.05959 c -33.8225,-14.49535 -62.2092,-33.21851 -85.1602,-55.5655 -22.9509,-22.347 -35.0304,-55.56551 -35.0304,-99.05155 0,-30.80262 6.6437,-57.37743 20.5351,-80.93237 13.8914,-23.55494 32.6145,-41.67412 57.3774,-54.96153 24.1589,-13.2874 52.5457,-19.32713 84.5562,-19.32713 26.5748,0 52.5457,4.22781 78.5165,13.2874 25.9708,9.0596 49.5258,21.13905 70.6648,36.23838 2.4159,1.20794 4.2278,4.22781 5.4358,7.85164 1.2079,3.62384 0.6039,7.24768 -0.604,10.26754 l -24.7629,47.10988 c -3.0199,6.03973 -7.8516,9.0596 -14.4953,9.0596 -4.2279,0 -7.8517,-1.20795 -11.4755,-3.01987 -19.3272,-12.68343 -38.0503,-21.74302 -55.5655,-27.17878 -17.5152,-5.43575 -33.2185,-8.45562 -47.1099,-8.45562 -22.347,0 -39.8622,6.03973 -53.1496,18.11919 -12.6835,12.07946 -19.3272,27.78275 -19.3272,47.10988 0,19.32714 7.2477,35.6344 21.1391,48.31783 14.4953,12.68343 36.8423,25.36686 68.2489,38.65427 4.2278,1.20794 21.7431,8.45562 51.3377,20.53507 29.5947,12.07946 53.1496,30.19865 70.6648,53.75359 17.5153,23.55494 25.9709,51.33769 25.9709,83.34825 0,30.80262 -7.2477,58.58537 -21.743,82.74428 -14.4954,24.15892 -35.0305,42.88208 -61.6053,56.77345 -26.5748,13.89138 -56.7734,20.53508 -91.1999,20.53508 -27.1788,1.20795 -53.7536,-3.62384 -79.7244,-12.07946" />
    <path
       sodipodi:nodetypes="ccsssssccsccscsssssscsscscscsscscscsssssc"
       style="fill:#003a40;fill-rule:nonzero;stroke:none;stroke-width:6.03972864;stroke-opacity:1"
       inkscape:connector-curvature="0"
       id="path18"
       d="m 2210.1738,819.99115 c -30.1986,-17.51521 -53.7536,-41.67412 -71.8728,-71.87277 -17.5152,-30.19864 -26.5748,-63.41715 -26.5748,-99.65552 l 0,-160.05281 c 0,-36.23837 9.0596,-69.45688 26.5748,-99.65552 17.5153,-30.19864 41.6742,-54.35756 71.8728,-71.87277 30.1987,-17.51521 62.8132,-26.57481 99.0516,-26.57481 31.4065,0 60.3972,5.43576 87.576,16.91124 26.5748,11.47549 49.5258,27.78276 68.8529,48.92181 3.0199,3.62383 4.2278,7.85164 4.2278,12.68343 0,4.83178 -1.8119,10.26753 -6.0397,15.09932 l -32.6145,34.42645 c -4.2278,4.22781 -7.8517,6.03973 -12.0795,6.03973 -4.8318,0 -9.6635,-2.41589 -13.2874,-6.6437 -24.7629,-26.57481 -56.7734,-39.86221 -95.4277,-39.86221 -18.7232,0 -36.8423,4.83178 -53.1496,15.09932 -16.3073,10.26754 -29.5947,23.55494 -39.2582,40.46618 -9.6636,16.91124 -14.4954,35.03043 -14.4954,54.96153 l 0,160.05281 c 0,19.32713 4.8318,38.05029 14.4954,54.96153 9.6635,16.91124 22.9509,30.80262 39.2582,40.46618 16.3073,10.26754 33.8225,15.09932 53.1496,15.09932 18.7232,0 36.8423,-4.83178 53.1496,-14.49534 16.3073,-9.66357 29.5947,-22.347 38.6543,-39.25824 9.6635,-16.30727 13.8914,-34.42645 13.8914,-53.75359 l 0,-36.84234 -100.2595,0 c -4.2279,0 -8.4557,-1.20795 -11.4755,-4.22781 -3.0199,-3.01986 -4.2278,-6.6437 -4.2278,-11.47548 l 0,-53.75359 c 0,-4.22781 1.2079,-8.45562 4.2278,-11.47548 3.0198,-3.01987 6.6437,-4.22781 11.4755,-4.22781 l 109.5854,0 48.0515,0 c 9.0596,0 16.3072,3.01986 22.9509,9.05959 6.0398,6.03973 9.0596,13.89138 9.0596,22.95097 l 0,86.97209 c 0,36.23837 -9.0596,69.45688 -26.5748,99.65552 -17.5152,30.19865 -41.6741,54.35756 -71.8727,71.87277 -30.1987,17.51522 -62.8132,26.57481 -97.8436,26.57481 -36.2384,0 -68.8529,-9.05959 -99.0516,-26.57481" />
    <path
       style="fill:#003a40;fill-rule:nonzero;stroke:none;stroke-width:1"
       inkscape:connector-curvature="0"
       id="path20"
       d="m 2670.4011,812.74348 c -27.1788,-15.7033 -48.9218,-38.05029 -64.6251,-65.22907 -15.7033,-27.17878 -24.1589,-57.37742 -24.1589,-89.99196 l 0,-80.93236 c 0,-32.61453 7.8517,-62.81318 24.1589,-89.99196 15.7033,-27.17877 37.4463,-49.52577 64.6251,-65.22906 27.1788,-15.7033 56.7735,-24.15892 89.388,-24.15892 32.6145,0 62.2092,7.85165 89.388,24.15892 27.1788,15.70329 48.9218,38.05029 64.6251,65.22906 15.7033,27.78276 24.1589,57.37743 24.1589,89.99196 l 0,50.12975 c 0,9.05959 -3.0199,16.30726 -9.0596,22.95097 -6.0397,6.03972 -13.8914,9.05959 -22.951,9.05959 l -233.7375,0 0,3.62384 c 0,24.76288 8.4557,45.29796 25.9709,62.81317 17.5152,17.51522 38.0503,25.97084 62.2092,25.97084 l 118.3787,0 c 4.2278,0 8.4556,1.81192 11.4754,4.83178 3.0199,3.01986 4.2279,6.6437 4.2279,11.47548 l 0,54.35756 c 0,4.22781 -1.208,8.45562 -4.2279,11.47549 -3.0198,3.01986 -6.6437,4.22781 -11.4754,4.22781 l -118.3787,0 c -33.2185,-0.60398 -63.4172,-9.0596 -89.992,-24.76289 l 0,0 z m 176.9641,-234.94544 0,-6.64371 c 0,-24.76288 -8.4556,-45.29796 -25.9709,-62.81317 -16.9112,-17.51522 -38.0502,-25.97084 -62.2092,-25.97084 -24.1589,0 -45.2979,8.45562 -62.2092,25.97084 -16.9112,17.51521 -25.9708,38.05029 -25.9708,62.81317 l 0,6.64371 176.3601,0 z" />
    <path
       style="fill:#003a40;fill-rule:nonzero;stroke:none;stroke-width:1"
       inkscape:connector-curvature="0"
       id="path22"
       d="m 3093.1821,823.01102 c -27.1787,-15.7033 -48.9218,-36.84235 -64.6251,-64.02113 -15.7033,-27.17877 -23.5549,-56.16947 -23.5549,-87.57606 l 0,-99.05155 c 0,-31.40659 7.8516,-61.00126 23.5549,-87.57606 15.7033,-27.17878 37.4464,-48.31783 64.6251,-64.02113 27.1788,-15.70329 56.7735,-23.55494 89.388,-23.55494 32.6145,0 62.2092,7.85165 89.388,23.55494 27.1788,15.7033 48.9218,37.44632 64.6251,64.02113 15.7033,27.17877 24.1589,56.16947 24.1589,87.57606 l 0,98.44758 c 0,31.40658 -7.8516,61.00126 -24.1589,87.57606 -15.7033,27.17878 -37.4463,48.31783 -64.6251,64.02112 -27.1788,15.7033 -56.7735,23.55495 -89.388,23.55495 -32.6145,0.60397 -62.8132,-7.24768 -89.388,-22.95097 m 150.9932,-89.38799 c 16.9113,-17.51521 25.9709,-38.05029 25.9709,-62.81317 l 0,-98.44758 c 0,-24.76289 -8.4556,-45.29796 -25.9709,-62.81318 -16.9112,-17.51521 -38.0502,-25.97083 -62.2092,-25.97083 -24.1589,0 -45.2979,8.45562 -62.2092,25.97083 -16.9112,17.51522 -25.9708,38.05029 -25.9708,62.81318 l 0,98.44758 c 0,24.76288 8.4556,45.29796 25.9708,62.81317 16.9113,17.51522 38.0503,25.97084 62.2092,25.97084 24.7629,0 45.298,-9.0596 62.2092,-25.97084" />
    <path
       style="fill:#4db05b;fill-rule:nonzero;stroke:none;stroke-width:1"
       inkscape:connector-curvature="0"
       id="path24"
       d="m 541.3968,243.19707 0,-108.71511 0,-109.923064 -68.24894,119.586624 C 287.12422,185.81965 146.39854,345.87246 134.31909,541.55966 l 109.31909,0 C 256.92558,382.7148 383.15591,256.48447 541.3968,243.19707" />
    <path
       style="fill:#003a40;fill-rule:nonzero;stroke:none;stroke-width:1"
       inkscape:connector-curvature="0"
       id="path26"
       d="m 243.63818,595.91722 -108.71512,0 -109.92306,0 119.58663,68.24893 c 41.67412,186.02365 201.72693,326.74932 397.41414,338.82875 l 0,-109.31906 C 383.15591,880.38844 256.92558,754.15811 243.63818,595.91722" />
    <path
       style="fill:#003a40;fill-rule:nonzero;stroke:none;stroke-width:1"
       inkscape:connector-curvature="0"
       id="path28"
       d="m 894.11695,540.95569 109.31905,0 109.9231,0 -119.58663,-68.24893 C 952.09834,286.68312 792.04553,145.95744 596.35833,133.87798 l 0,109.31909 c 158.24088,13.2874 284.47121,139.51773 297.75862,297.75862" />
    <path
       style="fill:#4db05b;fill-rule:nonzero;stroke:none;stroke-width:1"
       inkscape:connector-curvature="0"
       id="path30"
       d="m 595.75435,893.67584 0,109.31906 0,109.9231 68.24894,-119.58664 C 850.02693,951.65724 990.7526,791.60443 1002.8321,595.91722 l -109.31913,0 C 880.82954,754.15811 754.59921,880.38844 595.75435,893.67584" />
    <path
       style="fill:#003a40;fill-rule:nonzero;stroke:none;stroke-width:1"
       inkscape:connector-curvature="0"
       id="path32"
       d="M 602.39805,534.91596 400.67112,400.23001 535.35707,601.95695 737.084,736.6429 602.39805,534.91596 Z m -33.82248,56.77345 c -13.2874,0 -23.55494,-10.87151 -23.55494,-23.55494 0,-13.2874 10.87151,-23.55494 23.55494,-23.55494 13.28741,0 23.55495,10.87151 23.55495,23.55494 0,12.68343 -10.26754,23.55494 -23.55495,23.55494 l 0,0 z" />
    <polygon
       transform="matrix(6.0397286,0,0,6.0397286,25,24.558896)"
       style="fill:#4db05b;fill-rule:nonzero;stroke:none;stroke-width:1"
       points="95.7,103.1 84.5,95.6 77,84.4 42.8,90.1 77,95.7 62.2,117.9 84.3,103.1 90,137.3 "
       id="polygon34" />
    <polygon
       transform="matrix(6.0397286,0,0,6.0397286,25,24.558896)"
       style="fill:#4db05b;fill-rule:nonzero;stroke:none;stroke-width:1"
       points="137.3,90 103.1,84.4 117.9,62.2 95.7,77 90,42.8 84.4,77 95.6,84.5 103.1,95.7 "
       id="polygon36" />
    <text
       transform="scale(1.004346,0.99567281)"
       sodipodi:linespacing="125%"
       id="text4190"
       y="1436.1389"
       x="1663.8861"
       style="font-style:normal;font-weight:normal;font-size:750px;line-height:125%;font-family:sans-serif;letter-spacing:0px;word-spacing:0px;fill:#003a40;fill-opacity:1;fill-rule:evenodd;stroke:#003a40;stroke-width:24.25927925;stroke-linecap:butt;stroke-linejoin:miter;stroke-miterlimit:4;stroke-dasharray:none;stroke-opacity:1"
       xml:space="preserve"><tspan
         style="font-size:750px;fill:#003a40;fill-opacity:1;stroke:#003a40;stroke-width:24.25927925;stroke-miterlimit:4;stroke-dasharray:none;stroke-opacity:1"
         y="1436.1389"
         x="1663.8861"
         id="tspan4192"
         sodipodi:role="line">Park</tspan></text>
  </g>
</svg>
